<svg width="329" height="71" viewBox="0 0 329 71" fill="none" xmlns="http://www.w3.org/2000/svg">
<path d="M89.768 65.304L98.264 67.512V69H68.072V67.512L76.664 65.496L72.152 5.784L72.872 5.88L46.856 69.768H42.488L15.128 7.17599L15.848 7.032L12.104 65.544L21.272 67.512V69H0.536V67.512L8.84 65.544L12.728 5.16L3.944 1.848V0.359997H26.024L50.552 56.712H48.872L71.624 0.359997H94.136V1.848L84.824 3.96L89.768 65.304ZM124.756 67.608C127.508 67.608 129.796 66.776 131.62 65.112C133.476 63.448 134.852 60.936 135.748 57.576C136.676 54.184 137.14 49.944 137.14 44.856C137.14 39.672 136.692 35.336 135.796 31.848C134.932 28.328 133.588 25.688 131.764 23.928C129.972 22.136 127.684 21.24 124.9 21.24C122.148 21.24 119.844 22.088 117.988 23.784C116.164 25.448 114.788 27.96 113.86 31.32C112.964 34.68 112.516 38.904 112.516 43.992C112.516 49.176 112.964 53.528 113.86 57.048C114.756 60.536 116.1 63.176 117.892 64.968C119.716 66.728 122.004 67.608 124.756 67.608ZM124.516 70.056C119.972 70.056 115.876 68.968 112.228 66.792C108.58 64.616 105.7 61.608 103.588 57.768C101.476 53.896 100.42 49.448 100.42 44.424C100.42 39.4 101.508 34.968 103.684 31.128C105.892 27.256 108.868 24.232 112.612 22.056C116.356 19.88 120.548 18.792 125.188 18.792C129.828 18.792 133.956 19.88 137.572 22.056C141.188 24.232 144.036 27.24 146.116 31.08C148.228 34.92 149.284 39.368 149.284 44.424C149.284 49.448 148.164 53.896 145.924 57.768C143.684 61.608 140.692 64.616 136.948 66.792C133.204 68.968 129.06 70.056 124.516 70.056ZM155.445 69V67.848L184.293 20.472L187.461 22.344L159.429 23.064L163.221 21.336L156.693 36.84H155.061L158.085 16.392H158.853L162.597 19.848H195.813V20.952L166.821 68.52L162.693 66.648L191.205 65.592L187.317 67.896L196.485 50.232H198.213L193.461 69H155.445ZM232.75 37.272L233.086 39.432C229.086 40.712 225.854 41.944 223.39 43.128C220.926 44.312 219.038 45.496 217.726 46.68C216.446 47.864 215.566 49.128 215.086 50.472C214.606 51.816 214.366 53.304 214.366 54.936C214.366 57.656 215.07 59.672 216.478 60.984C217.918 62.296 219.694 62.952 221.806 62.952C223.406 62.952 224.798 62.632 225.982 61.992C227.198 61.352 228.142 60.408 228.814 59.16C229.518 57.912 229.87 56.344 229.87 54.456V32.232C229.87 29.16 229.086 26.808 227.518 25.176C225.982 23.544 223.646 22.728 220.51 22.728C218.974 22.728 217.47 22.84 215.998 23.064C214.526 23.256 213.358 23.544 212.494 23.928L214.894 21.72C214.734 23.224 214.542 24.648 214.318 25.992C214.094 27.304 213.838 28.456 213.549 29.448C213.262 30.408 212.91 31.144 212.494 31.656C212.046 32.232 211.358 32.696 210.43 33.048C209.534 33.368 208.59 33.528 207.598 33.528C206.286 33.528 205.262 33.288 204.526 32.808C203.822 32.296 203.47 31.56 203.47 30.6C203.47 29.224 204.126 27.848 205.438 26.472C206.782 25.064 208.526 23.784 210.67 22.632C212.846 21.48 215.214 20.552 217.774 19.848C220.366 19.144 222.878 18.792 225.31 18.792C229.15 18.792 232.222 19.352 234.526 20.472C236.83 21.592 238.494 23.16 239.518 25.176C240.574 27.192 241.102 29.56 241.102 32.28V59.928C241.102 60.92 241.262 61.72 241.582 62.328C241.902 62.904 242.35 63.336 242.926 63.624C243.502 63.88 244.158 64.008 244.894 64.008C245.886 64.008 246.862 63.864 247.822 63.576C248.814 63.256 249.838 62.76 250.894 62.088V63.72C248.494 66.376 246.318 68.104 244.366 68.904C242.446 69.672 240.398 70.056 238.222 70.056C236.174 70.056 234.542 69.624 233.326 68.76C232.11 67.896 231.23 66.616 230.686 64.92C230.174 63.192 229.87 61.096 229.774 58.632L230.062 58.776C229.486 61.048 228.574 63.032 227.326 64.728C226.11 66.424 224.622 67.736 222.862 68.664C221.134 69.56 219.214 70.008 217.102 70.008C212.942 70.008 209.55 68.936 206.926 66.792C204.334 64.616 203.038 61.528 203.038 57.528C203.038 55.448 203.39 53.608 204.094 52.008C204.798 50.408 206.174 48.888 208.222 47.448C210.27 45.976 213.262 44.44 217.198 42.84C221.134 41.208 226.318 39.352 232.75 37.272ZM285.393 18.936C286.929 18.936 288.145 19.384 289.041 20.28C289.937 21.176 290.385 22.392 290.385 23.928C290.385 25.816 289.793 27.368 288.609 28.584C287.425 29.8 285.937 30.408 284.145 30.408C283.249 30.408 282.401 30.312 281.601 30.12C280.801 29.928 279.969 29.736 279.105 29.544C278.273 29.352 277.329 29.256 276.273 29.256C275.345 29.256 274.465 29.4 273.633 29.688C272.833 29.976 272.049 30.392 271.281 30.936C270.545 31.48 269.761 32.136 268.929 32.904V30.744C271.425 28.056 273.521 25.928 275.217 24.36C276.945 22.76 278.401 21.576 279.585 20.808C280.769 20.04 281.809 19.544 282.705 19.32C283.601 19.064 284.497 18.936 285.393 18.936ZM269.841 27.96V66.168L277.137 67.656V69H252.273V67.656L258.561 66.168V29.064C258.145 28.744 257.649 28.392 257.073 28.008C256.529 27.592 255.841 27.08 255.009 26.472C254.209 25.864 253.217 25.112 252.033 24.216V23.208L269.457 18.36H269.841V27.96ZM310.467 55.752C310.467 58.056 311.187 59.784 312.627 60.936C314.067 62.088 316.019 62.664 318.483 62.664C319.923 62.664 321.427 62.552 322.995 62.328C324.563 62.072 326.403 61.64 328.515 61.032V62.616C325.411 64.568 322.851 66.088 320.835 67.176C318.851 68.264 317.107 69.016 315.603 69.432C314.131 69.88 312.595 70.104 310.995 70.104C308.851 70.104 306.883 69.656 305.091 68.76C303.331 67.864 301.907 66.456 300.819 64.536C299.763 62.584 299.235 60.056 299.235 56.952V26.952L292.707 22.584V21.72C293.059 21.496 293.635 21.16 294.435 20.712C295.235 20.232 296.195 19.656 297.315 18.984C298.467 18.28 299.715 17.512 301.059 16.68C302.435 15.816 303.875 14.92 305.379 13.992C306.883 13.064 308.387 12.136 309.891 11.208H310.467V21.432V55.752ZM306.435 25.752V19.848H327.027L326.211 25.752H306.435Z" fill="white"/>
</svg>
